<?xml version="1.0" standalone="no"?>
<!DOCTYPE svg PUBLIC "-//W3C//DTD SVG 20010904//EN"
 "http://www.w3.org/TR/2001/REC-SVG-20010904/DTD/svg10.dtd">
<svg version="1.0" xmlns="http://www.w3.org/2000/svg"
 width="500.000000pt" height="281.000000pt" viewBox="0 0 500.000000 281.000000"
 preserveAspectRatio="xMidYMid meet">
<metadata>
Created by potrace 1.16, written by Peter Selinger 2001-2019
</metadata>
<g transform="translate(0.000000,281.000000) scale(0.100000,-0.100000)"
fill="#000000" stroke="none">
<path d="M0 1405 l0 -1405 2500 0 2500 0 0 1405 0 1405 -2500 0 -2500 0 0
-1405z m1770 487 c0 -4 -5 -13 -11 -19 -15 -15 -21 -94 -8 -110 25 -29 194 -9
235 28 14 14 29 18 50 14 17 -4 69 6 131 24 107 31 166 32 210 4 14 -10 23
-11 28 -3 3 5 25 20 47 31 81 41 156 -5 144 -89 -14 -103 -123 -259 -252 -362
-41 -33 -78 -60 -82 -60 -4 0 -16 -7 -27 -15 -19 -15 -18 -16 18 -46 21 -17
80 -95 131 -173 102 -155 114 -169 154 -170 41 -2 35 -30 -6 -34 -24 -2 -45 4
-70 22 -44 31 -63 56 -148 201 -66 110 -120 178 -138 172 -12 -4 -31 -57 -66
-191 -32 -120 -41 -136 -65 -116 -18 15 -16 29 21 184 24 99 24 116 0 116 -7
0 -20 8 -29 18 -20 22 -6 42 28 42 41 0 53 24 99 190 25 91 52 184 60 208 11
31 12 42 3 42 -33 -1 -182 -49 -188 -61 -11 -19 -112 -435 -144 -589 -26 -128
-44 -162 -72 -139 -7 6 -13 23 -13 36 0 37 64 324 115 517 l44 168 -32 -7
c-111 -24 -191 -12 -230 35 l-24 28 -45 -57 c-24 -31 -66 -87 -92 -124 l-48
-68 4 -192 c3 -160 7 -198 22 -230 12 -23 25 -37 34 -35 26 5 81 91 138 215
58 127 70 145 79 120 13 -33 -131 -319 -177 -352 -38 -26 -92 -19 -121 14 -28
34 -37 79 -46 236 l-6 110 -37 -65 c-20 -36 -75 -143 -122 -237 -77 -155 -99
-186 -118 -167 -13 12 169 393 244 512 l41 64 -6 121 c-7 124 -21 197 -37 197
-5 0 -25 -14 -45 -31 -31 -27 -36 -29 -42 -13 -9 23 48 74 83 74 15 0 37 -12
54 -28 27 -27 42 -85 52 -197 3 -28 6 -26 73 55 97 119 168 190 188 190 9 0
17 -4 17 -8z m1206 -58 c8 -31 -6 -107 -56 -296 l-39 -148 37 0 c71 0 77 5
101 88 37 126 84 216 143 275 66 66 115 82 190 62 49 -12 50 -12 59 12 14 38
45 26 41 -16 -4 -48 12 -61 75 -61 70 0 143 18 169 42 15 13 29 17 47 13 16
-4 62 4 119 20 162 47 287 23 337 -65 28 -51 27 -156 -3 -273 -19 -73 -20 -87
-7 -82 8 3 35 9 60 12 61 8 47 -9 -26 -31 l-58 -18 -47 -96 c-101 -206 -219
-298 -318 -247 -59 31 -70 108 -56 389 10 191 39 272 121 345 20 17 32 31 28
31 -31 -2 -138 -39 -144 -51 -11 -19 -112 -435 -144 -589 -26 -128 -44 -162
-72 -139 -7 6 -13 23 -13 36 0 36 64 324 115 517 l44 168 -37 -8 c-47 -11
-128 -11 -168 -1 -30 8 -30 7 -47 -46 -22 -70 -65 -129 -110 -150 -40 -19 -73
-22 -82 -7 -3 6 3 10 14 10 29 0 101 67 122 115 10 22 19 59 19 82 0 133 -173
57 -255 -111 -68 -137 -108 -369 -85 -490 16 -85 41 -126 78 -126 57 0 109 48
201 185 47 72 97 154 110 183 24 52 59 75 46 30 -24 -80 -188 -333 -246 -379
-34 -27 -53 -34 -100 -37 -71 -5 -99 10 -131 71 -21 38 -23 56 -23 175 l0 132
-52 0 c-64 0 -65 -1 -92 -140 -31 -161 -36 -251 -17 -275 15 -19 17 -19 30 -2
16 21 36 22 36 3 0 -23 -29 -46 -59 -46 -36 0 -62 29 -71 79 -7 41 9 203 33
313 l14 66 -65 17 c-35 9 -66 14 -68 12 -2 -1 -22 -47 -44 -102 -66 -157 -97
-213 -129 -229 -25 -13 -31 -13 -47 -1 -16 12 -16 14 -3 15 9 0 24 9 34 20 21
23 135 301 129 312 -10 17 -74 8 -91 -12 -23 -27 -33 -25 -33 5 0 33 39 49 98
41 l42 -6 45 96 c57 123 140 247 204 307 43 41 54 46 71 37 11 -6 23 -22 26
-36z m-1809 10 c28 -18 39 -58 24 -91 -17 -37 -36 -24 -33 23 6 80 -58 83
-139 7 -53 -50 -82 -111 -77 -164 3 -33 5 -34 48 -37 73 -4 75 -9 19 -54 -103
-84 -181 -230 -183 -345 -1 -51 3 -66 20 -83 20 -21 23 -21 59 -6 91 39 213
162 275 279 14 26 31 47 39 47 34 0 -48 -129 -144 -226 -128 -130 -225 -166
-286 -105 -26 26 -29 37 -29 89 0 112 54 238 142 328 l39 41 -32 32 c-29 29
-31 36 -27 84 12 142 178 248 285 181z"/>
<path d="M2456 1819 c-26 -18 -65 -55 -87 -84 -56 -74 -191 -365 -170 -365 5
0 31 16 58 36 139 104 250 250 282 371 21 79 -6 93 -83 42z"/>
<path d="M2870 1763 c-49 -66 -180 -311 -180 -338 0 -17 108 -41 122 -27 10
10 128 397 128 420 0 26 -20 10 -70 -55z"/>
<path d="M3993 1785 c-61 -31 -112 -84 -148 -154 -26 -53 -35 -96 -9 -49 17
32 50 53 59 38 3 -5 -10 -51 -30 -100 -47 -117 -52 -150 -30 -184 14 -21 25
-26 56 -26 44 0 229 63 240 82 24 38 51 177 50 257 -1 73 -4 90 -26 123 -28
43 -44 47 -63 18 -16 -26 -31 -25 -40 0 -7 20 -8 20 -59 -5z"/>
<path d="M4020 1318 c-72 -25 -95 -29 -152 -25 l-68 4 -1 -46 c-4 -118 15
-203 47 -215 41 -16 131 60 197 164 38 62 80 150 69 149 -4 0 -45 -14 -92 -31z"/>
</g>
</svg>
